<svg xmlns="http://www.w3.org/2000/svg" width="87" height="34" viewBox="0 0 87 34" fill="none">
  <path d="M32.2029 14.875H28.3604V5.95H31.9182C32.7549 5.95 33.4362 6.19225 33.9624 6.67675C34.4885 7.16125 34.7516 7.7605 34.7516 8.4745C34.7516 8.8655 34.6653 9.20975 34.4928 9.50725C34.3289 9.80475 34.1435 10.0257 33.9365 10.1702C34.6351 10.5867 34.9844 11.2625 34.9844 12.1975C34.9844 12.971 34.717 13.6127 34.1823 14.1227C33.6562 14.6242 32.9964 14.875 32.2029 14.875ZM30.1329 7.49275V9.60925H31.7371C32.0821 9.60925 32.3667 9.51575 32.591 9.32875C32.8152 9.14175 32.9274 8.87825 32.9274 8.53825C32.9274 8.21525 32.8152 7.96025 32.591 7.77325C32.3667 7.58625 32.0821 7.49275 31.7371 7.49275H30.1329ZM30.1329 11.0882V13.3322H31.9053C32.3021 13.3322 32.6082 13.226 32.8239 13.0135C33.0395 12.801 33.1516 12.529 33.1602 12.1975C33.1689 11.8745 33.0567 11.611 32.8239 11.407C32.5996 11.1945 32.2934 11.0882 31.9053 11.0882H30.1329Z" fill="#E73725"/>
  <path d="M43.7974 13.6765C42.8746 14.5605 41.7404 15.0025 40.3949 15.0025C39.0494 15.0025 37.9195 14.5647 37.0052 13.6892C36.091 12.8052 35.6339 11.713 35.6339 10.4125C35.6339 9.112 36.091 8.024 37.0052 7.1485C37.9195 6.2645 39.0494 5.8225 40.3949 5.8225C41.7404 5.8225 42.8746 6.2645 43.7974 7.1485C44.7203 8.024 45.1817 9.112 45.1817 10.4125C45.1817 11.713 44.7203 12.801 43.7974 13.6765ZM38.3637 12.427C38.8984 12.9795 39.5755 13.2557 40.3949 13.2557C41.2142 13.2557 41.8956 12.9838 42.439 12.4397C42.9824 11.8872 43.2541 11.2115 43.2541 10.4125C43.2541 9.6135 42.9824 8.942 42.439 8.398C41.8956 7.8455 41.2142 7.56925 40.3949 7.56925C39.5841 7.56925 38.9071 7.8455 38.3637 8.398C37.8203 8.942 37.5486 9.6135 37.5486 10.4125C37.5486 11.2115 37.8203 11.883 38.3637 12.427Z" fill="#E73725"/>
  <path d="M54.0903 13.6765C53.1674 14.5605 52.0332 15.0025 50.6877 15.0025C49.3422 15.0025 48.2123 14.5647 47.2981 13.6892C46.3838 12.8052 45.9267 11.713 45.9267 10.4125C45.9267 9.112 46.3838 8.024 47.2981 7.1485C48.2123 6.2645 49.3422 5.8225 50.6877 5.8225C52.0332 5.8225 53.1674 6.2645 54.0903 7.1485C55.0131 8.024 55.4746 9.112 55.4746 10.4125C55.4746 11.713 55.0131 12.801 54.0903 13.6765ZM48.6565 12.427C49.1913 12.9795 49.8683 13.2557 50.6877 13.2557C51.5071 13.2557 52.1885 12.9838 52.7318 12.4397C53.2752 11.8872 53.5469 11.2115 53.5469 10.4125C53.5469 9.6135 53.2752 8.942 52.7318 8.398C52.1885 7.8455 51.5071 7.56925 50.6877 7.56925C49.877 7.56925 49.1999 7.8455 48.6565 8.398C48.1131 8.942 47.8415 9.6135 47.8415 10.4125C47.8415 11.2115 48.1131 11.883 48.6565 12.427Z" fill="#E73725"/>
  <path d="M60.269 10.183L64.1502 14.875H61.9379L58.5224 10.7185V14.875H56.75V5.95H58.5224V9.6985L61.925 5.95H64.0726L60.269 10.183Z" fill="#E73725"/>
  <path d="M73.1794 14.9387H72.1056L69.531 9.35425V14.875H67.7715V5.95H69.8027L72.6489 12.121L75.4822 5.95H77.5134V14.875H75.7539V9.35425L73.1794 14.9387Z" fill="#E73725"/>
  <path d="M83.6492 14.875H81.825V11.7002L78.3577 5.95H80.4277L82.7048 9.928L84.93 5.95H87L83.6492 11.662V14.875Z" fill="#E73725"/>
  <path d="M31.28 29.0417H28.4697V17.6375H33.2307C34.3217 17.6375 35.253 18.0068 36.0245 18.7453C36.8069 19.4839 37.1982 20.4017 37.1982 21.4986C37.1982 22.5956 36.829 23.5351 36.0906 24.3171C35.3632 25.0991 34.4099 25.4901 33.2307 25.4901H31.28V29.0417ZM31.28 20.0324V23.0138H32.5694C33.0433 23.0138 33.4346 22.878 33.7431 22.6065C34.0628 22.3349 34.2225 21.9657 34.2225 21.4986C34.2225 21.0425 34.0628 20.684 33.7431 20.4234C33.4346 20.1627 33.0433 20.0324 32.5694 20.0324H31.28Z" fill="#E73725"/>
  <path d="M45.7028 29.0417H38.3133V17.6375H41.0409V26.5165H45.7028V29.0417Z" fill="#E73725"/>
  <path d="M56.6531 29.0417H53.7105L53.0988 27.103H49.0487L48.437 29.0417H45.4945L49.4289 17.6375H52.8674L56.6531 29.0417ZM51.082 20.6677L49.8422 24.5777H52.3053L51.082 20.6677Z" fill="#E73725"/>
  <path d="M62.7637 29.0417H59.9534V25.0502L55.4569 17.6375H58.6474L61.2759 22.3132L63.8217 17.6375H67.0122L62.7637 24.985V29.0417Z" fill="#E73725"/>
  <path d="M75.545 29.0417H67.9571V17.6375H75.545V20.1138H70.7179V21.9548H75.0656V24.3985H70.7179V26.5653H75.545V29.0417Z" fill="#E73725"/>
  <path d="M83.152 25.0991L86.5574 29.0417H83.1024L80.1268 25.262V29.0417H77.3164V17.6375H82.0774C83.1795 17.6375 84.1163 17.9905 84.8877 18.6965C85.6592 19.4024 86.0449 20.2985 86.0449 21.3846C86.0449 22.2861 85.7804 23.0789 85.2514 23.7632C84.7335 24.4474 84.0336 24.8927 83.152 25.0991ZM81.5815 20.0812H80.1268V22.7531H81.5815C81.9893 22.7531 82.3364 22.639 82.623 22.411C82.9205 22.172 83.0693 21.8299 83.0693 21.3846C83.0693 20.9501 82.9205 20.6243 82.623 20.4071C82.3364 20.1899 81.9893 20.0812 81.5815 20.0812Z" fill="#E73725"/>
  <path d="M24.4375 31.9582C22.3994 31.9884 20.611 32.0186 19.0425 32.0487C19.3122 31.9482 19.3522 31.8375 19.3522 31.8375C19.3522 31.8375 19.4721 31.6766 19.0425 31.4956C18.6129 31.3145 18.1932 30.8317 17.9335 30.8619C17.6837 30.8921 17.4339 30.9826 17.2741 30.9826C17.2741 30.9826 17.5938 30.8317 17.7536 30.6809C17.7536 30.6809 16.9444 30.9323 16.4748 30.7311C16.4748 30.7311 16.8145 30.5803 17.1242 30.3791C17.1242 30.3791 17.0843 30.0975 16.7246 30.1679C16.3649 30.2282 16.1551 30.4093 15.8054 30.4294C15.4558 30.4495 15.2759 30.3892 15.2759 30.3892C15.2759 30.3892 15.7255 30.1176 16.0552 29.9969C16.325 29.8963 16.7745 29.846 16.7745 29.846C16.8545 29.8058 17.1242 29.0514 18.5129 26.7985C18.7527 26.4162 19.1823 25.8027 19.492 25.3501C19.7918 24.9075 20.0415 24.3644 20.0016 24.0224C19.9616 23.6604 19.562 22.1416 18.8127 21.6186C18.0734 21.0956 17.6937 20.8039 17.6937 20.8039C17.6937 20.8039 18.2732 20.9849 18.6928 21.2665C19.1124 21.5482 19.4221 21.5482 19.4221 21.5482C19.4221 21.5482 19.1424 21.0252 19.0425 20.8039C18.9426 20.5826 17.9435 20.0797 17.6138 19.9992C17.2941 19.9188 16.0352 20.6832 15.7755 21.0855C15.8154 20.9246 15.8854 20.7737 15.9653 20.6631C16.235 20.311 17.0543 19.8383 17.0543 19.8383C17.0543 19.8383 15.4258 20.3312 14.8763 21.0553C14.8763 21.0553 15.5757 19.8785 16.7845 19.3958C17.5039 19.1041 18.2232 19.1443 18.2232 19.1443C17.8436 18.5207 16.6147 17.0221 16.6047 17.0221C15.5257 16.8008 13.3377 17.2232 13.3377 17.2232C13.7074 16.9617 14.8663 16.7505 15.4857 16.6499C15.7255 16.6097 15.8954 16.5896 15.8954 16.5896C15.8954 16.5896 15.8954 16.5292 15.8854 16.4186C15.8454 15.9559 15.5757 13.9041 15.216 12.8983C14.7164 11.4901 14.1769 10.3938 14.1769 10.3938C14.1769 10.3938 14.8663 11.0878 15.5657 12.0735C16.0352 12.7373 16.335 13.9141 16.335 13.9141C16.1251 11.631 14.3768 8.99576 14.3768 8.99576C15.3059 9.71993 16.1451 10.8364 16.6946 11.7818C16.5747 9.69982 15.9853 7.88937 15.206 7.36636C15.4757 7.53734 16.1351 7.96984 16.4948 8.53309C16.4948 8.53309 17.1442 7.63792 17.4639 7.27583C17.9035 6.78299 18.3431 6.47119 18.3431 6.47119C18.3431 6.47119 18.3231 6.4209 18.2832 6.34044C18.3531 6.27003 18.423 6.18957 18.503 6.1091C18.9326 5.70678 19.0225 5.47545 19.0225 5.47545C18.8027 5.62632 18.413 5.71684 18.413 5.71684C18.413 5.71684 18.8227 5.42516 19.0824 5.12342C19.3422 4.83174 19.502 4.64063 19.502 4.64063C19.3921 4.92226 19.3222 5.21394 19.3222 5.21394C19.522 5.11336 20.0415 4.89208 20.4512 4.26849C20.8608 3.63483 21.5002 2.76984 21.76 2.43793C22.0197 2.10601 22.3394 1.57294 22.3394 1.57294C22.3394 1.7741 22.3794 2.11607 22.3794 2.11607C22.4693 2.01549 22.8889 1.67352 22.9389 1.63328C23.0887 1.54276 23.4484 1.50253 23.5083 1.4623C23.6083 1.38183 23.6182 1.20079 23.6182 1.20079C23.5483 1.29131 23.3785 1.31143 23.3785 1.31143C23.4284 1.22091 23.5583 1.2209 23.5283 0.98957C23.5083 0.858816 23.3984 0.758236 23.3984 0.758236C23.3984 0.758236 23.4584 1.23096 23.2786 1.24102L22.849 1.29131C22.849 1.29131 23.1087 1.19073 23.1687 1.07003C23.2286 0.959397 23.1487 0.627482 23.0787 0.547018C22.9988 0.476612 22.749 0.396147 22.789 0.386089C22.829 0.376031 23.1687 0.265393 23.2985 0.245277C23.4284 0.225161 23.5283 0.134639 23.3984 0.0642326C23.2686 -0.00617355 22.799 0.00388462 22.799 0.00388462C22.5792 -0.0363475 22.2795 0.245277 22.1496 0.416263C22.0197 0.58725 22.0797 0.868875 22.0197 1.20079C21.9598 1.54276 21.3603 2.11607 21.3603 2.11607C21.4602 1.90485 21.5102 1.57294 21.5102 1.57294C21.5102 1.57294 20.8708 2.18648 20.1514 2.41781C19.4321 2.64914 18.493 3.53425 18.0534 4.01704C17.8436 4.24837 17.5438 4.41936 17.2341 4.57023C17.6437 4.76133 17.8336 5.3447 17.9135 5.6062C17.9335 5.67661 17.9435 5.7269 17.9535 5.73696C17.9535 5.73696 17.6238 5.30446 17.2841 5.1033C17.0643 4.97255 16.8545 4.88202 16.6846 4.83173C16.5548 4.7915 16.4548 4.76133 16.3949 4.75127L14.9163 5.23406C14.8663 5.14353 14.7564 5.07313 14.7564 5.07313C14.7464 5.34469 14.5366 6.13928 14.117 6.58183C14.0371 6.67235 13.9172 6.76287 13.8073 6.84334C13.6574 6.90369 13.5175 6.67235 13.5475 6.59189C13.5675 6.5416 13.7873 6.50137 13.7873 6.50137C13.7873 6.50137 13.6774 6.45108 13.5875 6.45108C13.4676 6.45108 13.3477 6.44102 13.3477 6.44102C13.3477 6.44102 13.5475 6.33038 13.6974 6.32032C13.8472 6.31026 14.067 6.25997 14.067 6.25997C14.067 6.25997 13.9072 6.19963 13.7673 6.1594C13.6175 6.11916 13.3877 6.09905 13.3877 6.09905C13.3877 6.09905 13.3877 6.09905 13.4776 6.00852C13.5675 5.918 13.8073 5.76713 13.8073 5.76713L13.5375 4.94237C13.5375 4.94237 13.4276 4.86191 13.2978 4.84179C13.1679 4.82168 12.7682 4.67081 12.7682 4.67081L13.3177 4.68086L13.1079 3.68512C13.1079 3.68512 13.4976 3.75553 13.7274 3.70524C13.9472 3.665 14.4767 3.33309 14.4767 3.33309L14.7964 4.07738C14.7964 4.07738 14.7764 3.64489 14.7464 3.46384C14.7164 3.2828 14.5466 2.60891 14.4667 2.4681C14.3268 2.24682 14.0271 2.11607 14.0271 2.11607C13.1978 1.7741 11.889 1.88473 11.4195 2.70949C11.2796 2.96094 11.1597 3.33309 11.3396 3.92651C11.4594 4.29866 11.5394 4.4093 11.5394 4.4093C11.5394 4.4093 11.2297 4.43947 11.2197 4.56017C11.2097 4.69092 11.2796 5.06307 11.4495 5.24411C11.6193 5.42516 11.8591 5.59615 11.8591 5.59615C11.8591 5.59615 11.8591 5.59614 11.959 5.88783C11.989 5.96829 12.0289 6.06887 12.0789 6.16945C11.899 6.37061 11.5993 6.66229 11.2996 6.82322C10.82 7.07467 10.1307 7.50717 10.0907 7.53734C9.89089 7.65804 9.73104 7.76868 9.64112 7.86926C9.92086 7.75862 10.2406 7.65804 10.5103 7.56752C10.82 7.46694 11.0598 7.39653 11.0598 7.39653C11.0598 7.39653 10.9699 7.46694 10.82 7.57757C10.6402 7.70833 10.3804 7.87932 10.0507 8.07042C9.48127 8.39228 8.7919 9.04605 8.4622 9.45842C8.01262 10.0619 7.61299 10.595 7.61299 10.595C7.61299 10.595 7.77284 10.6654 7.97266 10.776C7.83279 11.1884 7.52307 12.1137 7.35323 12.3753C7.13343 12.7072 6.89365 13.1195 6.89365 13.1195L7.14342 13.0592C7.46313 13.0491 7.74287 13.2503 7.74287 13.2503C7.74287 13.2503 6.95359 13.6224 6.48403 14.2662C6.01446 14.9099 6.00447 15.7346 6.00447 15.7346C5.88458 15.6139 5.57486 15.3223 5.41501 15.1613C5.40502 15.1915 5.39503 15.2217 5.38504 15.2518C5.37505 15.272 5.36506 15.2921 5.36506 15.3122C5.43499 15.6139 5.55488 16.1068 5.66478 16.2979C5.94452 16.7706 6.48403 17.1226 6.48403 17.1226C6.48403 17.1226 5.35507 16.6197 5.03536 16.1872C5.03536 16.1872 5.20521 16.7304 5.48495 17.0925C5.43499 17.0824 5.38504 17.0623 5.33509 17.0422C5.14526 16.9718 4.95544 16.831 4.79558 16.67C4.7756 16.9718 4.84554 17.1226 4.9954 17.2232C5.17523 17.3439 5.20521 17.4546 5.39503 17.4747C5.58486 17.4948 5.50493 17.4948 5.7547 17.6457C6.00447 17.7865 5.90456 17.525 6.16432 17.5954C6.42408 17.6758 6.44406 17.5149 6.44406 17.5149C6.44406 17.5149 6.64388 17.6457 6.7338 17.535C6.81372 17.4143 6.79374 17.2333 6.85369 16.8913C6.91363 16.5493 6.82371 16.5594 6.65387 16.3582C6.49402 16.1571 6.31418 15.9157 6.31418 15.9157C6.31418 15.9157 6.38412 15.5737 6.66386 15.2619C6.9436 14.94 7.43315 14.6383 7.7129 14.3667C8.02261 14.0751 8.0326 13.8035 8.21243 13.542C8.40226 13.1397 8.35231 13.0391 8.54213 12.6569C8.5721 12.5865 9.06165 12.1339 8.99172 11.983C8.80189 11.6108 8.59208 11.2789 8.41225 11.0275C8.4722 11.0677 8.53214 11.118 8.5821 11.1582C8.95175 11.47 9.3314 11.8623 9.3314 11.8623C9.3314 11.8623 9.64112 11.5002 9.91087 11.2186C9.91087 11.2186 10.4304 10.7559 11.3595 9.6797C11.3595 9.6797 10.9199 10.7861 10.6902 11.3192C10.6902 11.3292 10.6802 11.3393 10.6802 11.3493C11.0798 11.0576 11.4994 10.7056 11.4994 10.7056C11.4994 10.7056 10.5003 12.3149 10.2705 13.2604C10.2506 13.6023 10.4104 14.6685 10.3005 15.2921C10.3605 15.2619 10.4104 15.2418 10.4704 15.2217C11.2097 14.9501 12.2187 14.9702 12.2187 14.9702C11.959 15.0105 11.6393 15.111 11.3096 15.2418C10.7001 15.4832 10.0707 15.8453 9.81096 16.147L9.78099 16.1671C9.63113 16.3884 9.51124 16.5896 9.45129 16.7203C9.45129 16.7203 9.79098 16.4387 10.3804 16.2677L10.3704 16.2778C10.6802 16.1872 11.2796 16.0464 12.0089 15.9458C12.8981 15.8352 14.0371 16.0364 14.4267 16.1168C14.5166 16.137 14.5666 16.147 14.5666 16.147C14.5366 16.147 14.5166 16.147 14.4867 16.147C13.3477 16.0766 12.5484 16.1068 11.4095 16.4387C11.0798 16.5393 10.6102 16.7404 10.1806 16.9416L10.1706 16.9315C10.1706 16.9315 9.85093 17.0824 9.52123 17.2534C9.37137 17.3238 9.22151 17.4043 9.11161 17.4747C9.03168 17.525 8.96174 17.5652 8.91179 17.5954C8.76193 17.706 8.58209 18.3095 8.45221 18.7923C7.94268 19.5567 7.34324 20.4317 7.34324 20.4317C7.34324 20.4317 6.58394 21.4476 6.43407 21.7594C6.43407 21.7594 6.0744 21.9103 5.51492 22.2623C5.51492 22.2623 5.88458 21.7192 6.4041 21.5381C6.4041 21.5381 5.92454 21.4074 5.69475 21.5381C5.69475 21.5381 5.81464 21.166 6.31418 21.0654C6.31418 21.0654 5.94452 20.5222 5.48495 20.2607C5.3251 20.1702 5.19521 20.0395 5.07533 19.8987C4.9954 19.5869 5.18522 19.5366 5.29512 19.2751C5.425 18.9331 5.3151 18.7017 5.00539 18.5811C4.69567 18.4704 3.7965 18.6917 3.7965 18.6917C3.7965 18.6917 4.26607 18.3899 4.62574 18.3598C4.62574 18.3598 3.71658 18.2793 2.8274 18.048C2.08808 17.8569 1.49862 17.877 0.949126 18.0882C0.489549 18.2592 0.759301 18.7722 1.01906 18.9633C1.27882 19.1544 1.61851 19.3153 1.61851 19.3153C1.61851 19.3153 1.48863 18.9532 1.91823 18.7722C1.91823 18.7722 1.74839 19.1644 1.83831 19.4662L2.02813 19.5768C2.02813 19.5768 1.93821 19.094 2.39779 18.8828C2.39779 18.8828 2.168 19.4058 2.24793 19.6975L2.57763 19.8182C2.57763 19.8182 2.59761 19.1041 3.05718 18.9331C3.05718 18.9331 2.80741 19.5667 2.98725 19.8785C3.07717 20.0294 3.23702 20.1099 3.48679 20.1501C3.55672 20.2306 3.62666 20.301 3.67661 20.3714C3.84646 20.6429 3.93637 21.6789 4.33601 22.4232C4.73564 23.1575 5.41501 24.2638 6.12436 24.4751C6.83371 24.6762 7.62298 24.2437 8.26239 23.6805L8.85185 23.1172C8.85185 23.1172 8.29236 22.9362 7.91271 22.4735C7.91271 22.4735 8.29236 22.554 8.52215 22.6244C8.75194 22.7048 9.3414 22.7551 9.3414 22.7551C9.3414 22.7551 8.50217 22.1617 8.22243 21.9304C8.06257 21.7996 7.93269 21.2967 7.85277 20.9045C8.40226 21.4275 9.25148 22.2221 9.62114 22.4635C10.3305 22.9261 10.6402 22.8758 10.6402 22.8758C10.6402 22.8758 11.989 21.2766 12.4385 20.9246C12.4385 20.9246 11.1397 21.1157 10.1407 21.1458C10.1407 21.1458 11.6193 20.6631 12.3786 20.311C12.3786 20.311 11.2996 20.1602 10.8001 20.2809C10.8001 20.2809 12.0989 19.959 13.008 19.5366C13.9172 19.1242 15.6256 18.5308 16.1551 18.5408C16.1551 18.5408 14.2669 19.0538 13.6274 19.7981C13.6274 19.7981 14.3068 19.6774 14.6865 19.7377C14.6865 19.7377 13.3877 20.653 13.2178 20.8944C13.2178 20.8944 14.2569 21.9907 14.8463 22.5841C15.4358 23.1776 16.315 23.3486 16.315 23.3486C16.315 23.3486 16.0752 23.0569 15.8454 22.3729C15.7555 22.1114 15.7155 21.8499 15.7055 21.6085C15.7655 21.86 15.9253 22.1416 16.1152 22.4534C16.3549 22.8255 17.2941 23.8213 17.374 23.9621C17.9235 23.5397 18.3331 23.5397 18.3331 23.5397C18.0833 23.7006 17.5338 24.2437 17.5338 24.2437C17.5338 24.2437 16.6247 25.3602 16.335 26.0039C16.0452 26.6576 15.6856 28.0054 15.5057 28.3474C15.5057 28.3474 16.6846 26.6174 17.0843 25.9636C17.0843 25.9636 16.4249 27.5126 15.9053 28.4882C15.4158 29.4135 15.1161 29.9567 14.9762 30.1981C14.8763 30.3691 14.7864 30.53 14.6465 30.7915C14.6365 30.7915 14.6365 30.8015 14.6265 30.8116C14.5566 30.9323 14.4867 31.0631 14.4367 31.1737C14.4167 31.2139 14.3967 31.2542 14.3867 31.2944C14.3668 31.3547 14.067 31.8878 14.4767 32.0789C7.77284 32.1896 7.74287 32.1896 7.2733 32.1996C6.82371 32.7729 6.13435 33.135 5.34508 33.135C4.8855 33.135 4.4459 33.0043 4.07625 32.783C4.38596 32.9338 4.72565 33.0143 5.08532 33.0143C5.79466 33.0143 6.42408 32.7025 6.85369 32.2097C7.22335 31.7872 7.45313 31.234 7.45313 30.6205C7.45313 29.8159 7.06349 29.1118 6.46405 28.6793C6.44406 28.6793 4.80557 28.6089 3.99632 29.8159C3.99632 29.8159 4.09623 28.9006 4.67569 28.3776C4.71566 28.3373 4.75562 28.3072 4.79558 28.277C4.70567 28.3172 4.62574 28.3675 4.53582 28.4178C3.75654 28.9006 3.21704 29.7555 3.21704 31.1737C3.21704 31.1737 2.94729 30.4495 3.19706 29.5342C3.257 29.313 3.34692 29.0816 3.4768 28.8503C3.00723 29.2828 2.70751 29.9164 2.70751 30.6104C2.70751 31.4654 3.15709 32.2097 3.82648 32.6321L0 34L24.4375 31.9582Z" fill="#E73725"/>
  <path d="M14.7669 4.57023C14.7669 4.57023 14.6071 4.67089 14.3773 4.74135C14.1375 4.82188 13.7678 4.88228 13.7678 4.88228C13.7678 4.88228 13.8578 5.07353 14.0975 5.1138C14.2274 5.13393 14.6071 5.01314 14.6071 5.01314C14.5172 5.01314 14.3973 4.95274 14.3973 4.95274C14.5271 4.90241 14.7669 4.57023 14.7669 4.57023Z" fill="#141414"/>
</svg>